<svg width="108" height="108" viewBox="0 0 108 108" fill="none" xmlns="http://www.w3.org/2000/svg">
<g clip-path="url(#clip0_303_36)">
<path d="M24.6059 57.9391C27.4239 57.184 29.8265 55.3404 31.2851 52.8139C32.7438 50.2873 33.1391 47.2848 32.3841 44.4669L30.486 37.3834C29.731 34.5654 27.8874 32.1628 25.3609 30.7041C22.8343 29.2454 19.8318 28.8502 17.0139 29.6052C14.1959 30.3603 11.7933 32.2039 10.3346 34.7304C8.8759 37.2569 8.48061 40.2594 9.23568 43.0774L11.1337 50.1609C11.8888 52.9789 13.7323 55.3815 16.2589 56.8401C18.7854 58.2988 21.7879 58.6941 24.6059 57.9391ZM16.3191 41.1794C16.0674 40.2401 16.1992 39.2393 16.6854 38.3971C17.1717 37.5549 17.9725 36.9404 18.9119 36.6887C19.8512 36.437 20.852 36.5688 21.6942 37.055C22.5364 37.5412 23.1509 38.3421 23.4026 39.2814L25.3006 46.3649C25.5523 47.3042 25.4205 48.305 24.9343 49.1472C24.4481 49.9894 23.6472 50.6039 22.7079 50.8556C21.7685 51.1073 20.7677 50.9755 19.9255 50.4893C19.0834 50.0031 18.4688 49.2022 18.2171 48.2629L16.3191 41.1794ZM72.9868 25.9954C72.2317 23.1774 70.3881 20.7748 67.8616 19.3161C65.3351 17.8574 62.3326 17.4621 59.5146 18.2172C56.6966 18.9723 54.294 20.8159 52.8353 23.3424C51.3766 25.8689 50.9813 28.8714 51.7364 31.6894L53.6344 38.7728C54.3895 41.5908 56.2331 43.9934 58.7596 45.4521C61.2861 46.9108 64.2886 47.3061 67.1066 46.551C69.9246 45.7959 72.3272 43.9524 73.7859 41.4258C75.2446 38.8993 75.6399 35.8968 74.8848 33.0788L72.9868 25.9954ZM67.8013 34.9768C68.053 35.9162 67.9213 36.917 67.435 37.7592C66.9488 38.6013 66.1479 39.2159 65.2086 39.4676C64.2693 39.7193 63.2684 39.5875 62.4263 39.1013C61.5841 38.615 60.9696 37.8142 60.7179 36.8748L58.8199 29.7914C58.5682 28.8521 58.6999 27.8512 59.1862 27.009C59.6724 26.1669 60.4733 25.5523 61.4126 25.3007C62.3519 25.049 63.3528 25.1807 64.1949 25.667C65.0371 26.1532 65.6516 26.9541 65.9033 27.8934L67.8013 34.9768ZM45.8562 52.245C44.9169 52.4967 43.9161 52.365 43.0739 51.8787C42.2317 51.3925 41.6172 50.5916 41.3655 49.6523L35.6715 28.4019C35.4198 27.4626 35.5516 26.4618 36.0378 25.6196C36.524 24.7774 37.3249 24.1629 38.2642 23.9112C39.2035 23.6595 40.2044 23.7913 41.0466 24.2775C41.8887 24.7637 42.5033 25.5646 42.755 26.5039L48.449 47.7543C48.7007 48.6936 48.5689 49.6945 48.0827 50.5366C47.5964 51.3788 46.7956 51.9933 45.8562 52.245ZM85.2557 15.1159L90.9497 36.3663C91.2014 37.3056 91.0696 38.3064 90.5834 39.1486C90.0972 39.9908 89.2963 40.6053 88.357 40.857C87.4176 41.1087 86.4168 40.9769 85.5746 40.4907C84.7325 40.0045 84.1179 39.2036 83.8662 38.2643L78.1722 17.0139C77.9205 16.0746 78.0523 15.0737 78.5385 14.2316C79.0248 13.3894 79.8256 12.7749 80.765 12.5232C81.7043 12.2715 82.7051 12.4032 83.5473 12.8895C84.3895 13.3757 85.004 14.1766 85.2557 15.1159ZM41.8741 79.8841L39.9761 72.8007C39.221 69.9827 37.3774 67.5801 34.8509 66.1214C32.3244 64.6627 29.3219 64.2674 26.5039 65.0225C23.6859 65.7776 21.2833 67.6212 19.8246 70.1477C18.3659 72.6742 17.9706 75.6767 18.7257 78.4947L20.6237 85.5782C21.3788 88.3961 23.2224 90.7987 25.7489 92.2574C28.2754 93.7161 31.2779 94.1114 34.0959 93.3563C36.9139 92.6013 39.3165 90.7577 40.7752 88.2312C42.2339 85.7046 42.6292 82.7021 41.8741 79.8841ZM27.7072 83.6802L25.8092 76.5967C25.5575 75.6574 25.6892 74.6565 26.1755 73.8144C26.6617 72.9722 27.4626 72.3577 28.4019 72.106C29.3412 71.8543 30.3421 71.986 31.1842 72.4723C32.0264 72.9585 32.6409 73.7594 32.8926 74.6987L34.7906 81.7821C35.0423 82.7215 34.9106 83.7223 34.4243 84.5645C33.9381 85.4067 33.1372 86.0212 32.1979 86.2729C31.2586 86.5246 30.2577 86.3928 29.4156 85.9066C28.5734 85.4203 27.9589 84.6195 27.7072 83.6802ZM48.9575 77.9861C49.7126 80.8041 51.5562 83.2067 54.0827 84.6654C56.6092 86.1241 59.6118 86.5194 62.4297 85.7643C65.2477 85.0092 67.6503 83.1657 69.109 80.6391C70.5677 78.1126 70.963 75.1101 70.2079 72.2921L68.3099 65.2087C67.5548 62.3907 65.7112 59.9881 63.1847 58.5294C60.6582 57.0707 57.6557 56.6754 54.8377 57.4305C52.0197 58.1856 49.6171 60.0291 48.1584 62.5557C46.6997 65.0822 46.3045 68.0847 47.0595 70.9027L48.9575 77.9861ZM54.143 69.0047C53.8913 68.0653 54.0231 67.0645 54.5093 66.2223C54.9955 65.3802 55.7964 64.7656 56.7357 64.5139C57.675 64.2622 58.6759 64.394 59.518 64.8802C60.3602 65.3665 60.9748 66.1673 61.2264 67.1067L63.1245 74.1901C63.3761 75.1294 63.2444 76.1303 62.7581 76.9725C62.2719 77.8146 61.4711 78.4292 60.5317 78.6809C59.5924 78.9325 58.5916 78.8008 57.7494 78.3146C56.9072 77.8283 56.2927 77.0275 56.041 76.0881L54.143 69.0047ZM94.7457 50.5332L100.44 71.7835C100.691 72.7229 100.56 73.7237 100.073 74.5659C99.5872 75.4081 98.7863 76.0226 97.847 76.2743C96.9077 76.526 95.9068 76.3942 95.0647 75.908C94.2225 75.4217 93.608 74.6209 93.3563 73.6816L87.6623 52.4312C87.4106 51.4919 87.5423 50.491 88.0286 49.6488C88.5148 48.8067 89.3157 48.1921 90.255 47.9405C91.1943 47.6888 92.1951 47.8205 93.0373 48.3068C93.8795 48.793 94.494 49.5939 94.7457 50.5332ZM76.0881 51.7365C77.0274 51.4848 78.0282 51.6165 78.8704 52.1028C79.7126 52.589 80.3271 53.3899 80.5788 54.3292L86.2728 75.5796C86.5245 76.5189 86.3928 77.5197 85.9065 78.3619C85.4203 79.2041 84.6194 79.8186 83.6801 80.0703C82.7408 80.322 81.7399 80.1902 80.8978 79.704C80.0556 79.2178 79.4411 78.4169 79.1894 77.4776L73.4953 56.2272C73.2437 55.2879 73.3754 54.287 73.8616 53.4449C74.3479 52.6027 75.1487 51.9882 76.0881 51.7365Z" fill="#9E9E9E" fill-opacity="0.2"/>
</g>
<defs>
<clipPath id="clip0_303_36">
<rect width="88" height="88" fill="white" transform="translate(0 22.7761) rotate(-15)"/>
</clipPath>
</defs>
</svg>
