<svg width="143" height="143" viewBox="0 0 143 143" fill="none" xmlns="http://www.w3.org/2000/svg">
<g clip-path="url(#clip0_303_40)">
<path d="M50.5148 68.7189L58.3359 87.6006C59.1445 89.5465 60.6919 91.0922 62.6387 91.8986C64.5855 92.7049 66.7726 92.7062 68.7203 91.902L87.6021 84.0809C89.548 83.2723 91.0936 81.7249 91.9 79.7781C92.7064 77.8313 92.7077 75.6442 91.9035 73.6965L84.0824 54.8147C83.2738 52.8688 81.7264 51.3232 79.7796 50.5168C77.8328 49.7104 75.6456 49.7091 73.6979 50.5133L54.8162 58.3344C52.8703 59.143 51.3246 60.6904 50.5182 62.6372C49.7119 64.584 49.7106 66.7712 50.5148 68.7189ZM76.125 59.3397L83.0771 76.1235L66.2933 83.0756L59.3412 66.2918L76.125 59.3397ZM41.2411 34.4622C40.7801 33.3494 39.896 32.4652 38.7831 32.0043C37.6703 31.5433 36.4199 31.5433 35.3071 32.0043C34.1943 32.4652 33.3101 33.3494 32.8492 34.4622C32.3882 35.575 32.3882 36.8254 32.8492 37.9382L36.3252 46.3301L35.2762 46.7646C32.2175 48.0342 29.7877 50.4658 28.5204 53.5254C27.253 56.585 27.2518 60.0225 28.5169 63.0831L28.9514 64.1321L20.5595 67.6081C19.4467 68.0691 18.5625 68.9532 18.1016 70.066C17.6406 71.1789 17.6406 72.4292 18.1016 73.5421C18.5625 74.6549 19.4467 75.5391 20.5595 76C21.6723 76.461 22.9227 76.461 24.0355 76L32.4274 72.524L35.9035 80.9159L27.5116 84.3919C26.3987 84.8529 25.5146 85.737 25.0536 86.8498C24.5927 87.9627 24.5927 89.2131 25.0536 90.3259C25.5146 91.4387 26.3987 92.3229 27.5116 92.7838C28.6244 93.2448 29.8748 93.2448 30.9876 92.7838L39.3795 89.3078L42.8556 97.6997L34.4637 101.176C33.3508 101.637 32.4667 102.521 32.0057 103.634C31.5448 104.746 31.5448 105.997 32.0057 107.11C32.4667 108.223 33.3508 109.107 34.4637 109.568C35.5765 110.029 36.8269 110.029 37.9397 109.568L46.3316 106.092L46.7661 107.141C48.0357 110.199 50.4672 112.629 53.5269 113.896C56.5865 115.164 60.024 115.165 63.0845 113.9L64.1335 113.465L67.6096 121.857C68.0705 122.97 68.9547 123.854 70.0675 124.315C71.1803 124.776 72.4307 124.776 73.5435 124.315C74.6564 123.854 75.5405 122.97 76.0015 121.857C76.4624 120.744 76.4624 119.494 76.0015 118.381L72.5254 109.989L80.9173 106.513L84.3934 114.905C84.8543 116.018 85.7385 116.902 86.8513 117.363C87.9642 117.824 89.2145 117.824 90.3274 117.363C91.4402 116.902 92.3243 116.018 92.7853 114.905C93.2462 113.792 93.2462 112.542 92.7853 111.429L89.3092 103.037L97.7012 99.5612L101.177 107.953C101.638 109.066 102.522 109.95 103.635 110.411C104.748 110.872 105.998 110.872 107.111 110.411C108.224 109.95 109.108 109.066 109.569 107.953C110.03 106.84 110.03 105.59 109.569 104.477L106.093 96.0852L107.142 95.6507C110.201 94.3811 112.631 91.9495 113.898 88.8899C115.165 85.8303 115.166 82.3928 113.901 79.3322L113.467 78.2833L121.859 74.8072C122.972 74.3463 123.856 73.4621 124.317 72.3493C124.778 71.2365 124.778 69.9861 124.317 68.8732C123.856 67.7604 122.972 66.8763 121.859 66.4153C120.746 65.9544 119.496 65.9544 118.383 66.4153L109.991 69.8914L106.515 61.4994L114.907 58.0234C116.02 57.5625 116.904 56.6783 117.365 55.5655C117.826 54.4526 117.826 53.2023 117.365 52.0894C116.904 50.9766 116.02 50.0925 114.907 49.6315C113.794 49.1706 112.543 49.1706 111.431 49.6315L103.039 53.1075L99.5627 44.7156L107.955 41.2396C109.067 40.7786 109.952 39.8945 110.413 38.7817C110.873 37.6688 110.873 36.4185 110.413 35.3056C109.952 34.1928 109.067 33.3086 107.955 32.8477C106.842 32.3867 105.591 32.3867 104.479 32.8477L96.0866 36.3237L95.6521 35.2747C94.3826 32.2161 91.951 29.7862 88.8914 28.5189C85.8318 27.2516 82.3943 27.2503 79.3337 28.5154L78.2847 28.9499L74.8087 20.558C74.3477 19.4452 73.4636 18.561 72.3508 18.1001C71.2379 17.6391 69.9876 17.6392 68.8747 18.1001C67.7619 18.5611 66.8777 19.4452 66.4168 20.558C65.9558 21.6709 65.9558 22.9212 66.4168 24.0341L69.8928 32.426L61.5009 35.902L58.0249 27.5101C57.5639 26.3973 56.6798 25.5131 55.5669 25.0522C54.4541 24.5912 53.2037 24.5912 52.0909 25.0522C50.9781 25.5131 50.0939 26.3973 49.633 27.5101C49.172 28.6229 49.172 29.8733 49.633 30.9862L53.109 39.3781L44.7171 42.8541L41.2411 34.4622ZM82.8098 36.9073C83.6445 36.5629 84.5818 36.5635 85.4161 36.9091C86.2504 37.2547 86.9136 37.917 87.2602 38.7508L105.509 82.8083C105.854 83.643 105.853 84.5803 105.508 85.4146C105.162 86.2489 104.5 86.9121 103.666 87.2588L59.6085 105.508C58.7738 105.852 57.8365 105.852 57.0022 105.506C56.1679 105.161 55.5047 104.498 55.158 103.665L36.9088 59.607C36.5643 58.7723 36.565 57.835 36.9105 57.0007C37.2561 56.1664 37.9184 55.5032 38.7523 55.1566L82.8098 36.9073Z" fill="#9E9E9E" fill-opacity="0.2"/>
</g>
<defs>
<clipPath id="clip0_303_40">
<rect width="109" height="109" fill="white" transform="translate(41.7139 142.415) rotate(-112.5)"/>
</clipPath>
</defs>
</svg>
