<svg width="141" height="141" viewBox="0 0 141 141" fill="none" xmlns="http://www.w3.org/2000/svg">
<g clip-path="url(#clip0_303_42)">
<path fill-rule="evenodd" clip-rule="evenodd" d="M83.5961 46.8672L96.0464 62.5194L111.699 50.0691L99.2482 34.4169L83.5961 46.8672ZM28.8135 90.4432L41.2638 106.095L56.916 93.6451L44.4657 77.9929L28.8135 90.4432ZM53.7141 121.748L66.1644 137.4L81.8166 124.949L69.3663 109.297L53.7141 121.748ZM3.91293 59.1389L16.3632 74.7911L32.0154 62.3408L19.5651 46.6886L3.91293 59.1389ZM36.7289 52.2026L30.5037 44.3765L46.1559 31.9262L71.0565 63.2305L78.8826 57.0054L85.1077 64.8315L77.2816 71.0566L102.182 102.361L86.5301 114.811L80.3049 106.985L88.131 100.76L69.4556 77.2818L61.6295 83.5069L55.4043 75.6808L63.2304 69.4557L44.555 45.9774L36.7289 52.2026Z" fill="#9E9E9E" fill-opacity="0.2"/>
</g>
<defs>
<clipPath id="clip0_303_42">
<rect width="100" height="100" fill="white" transform="translate(78.2607) rotate(51.5)"/>
</clipPath>
</defs>
</svg>
