<svg width="130" height="130" viewBox="0 0 130 130" fill="none" xmlns="http://www.w3.org/2000/svg">
<g clip-path="url(#clip0_303_38)">
<path d="M31.7528 11.2395L8.95402 93.4492L11.2391 97.488L93.4488 120.287L97.4876 118.002L120.286 35.792L118.001 31.7532L35.7916 8.95446L31.7528 11.2395ZM113.086 37.2002L97.3019 94.1146L84.6542 90.6071L88.6879 76.0623C93.0083 75.2174 96.7654 71.4922 97.9931 67.0656C99.9222 60.1093 95.8091 52.8395 88.8529 50.9104C81.8967 48.9813 74.6269 53.0943 72.6978 60.0505C70.7686 67.0068 74.8817 74.2766 81.8379 76.2057L76.5767 95.1772L95.5481 100.438L92.0406 113.086L16.1547 92.0411L19.6622 79.3934L34.207 83.427C35.0519 87.7475 38.7771 91.5046 43.2038 92.7322C50.16 94.6614 57.4298 90.5483 59.3589 83.5921C61.2881 76.6359 57.175 69.3661 50.2188 67.4369L53.7263 54.7893C60.6825 56.7184 67.9523 52.6054 69.8814 45.6491C71.8106 38.6929 67.6975 31.4231 60.7413 29.494C53.7851 27.5649 46.5153 31.6779 44.5861 38.6341C43.3585 43.0608 44.6604 48.189 47.9286 51.1384L43.3688 67.5803C39.0484 68.4252 35.2913 72.1504 34.0636 76.5771L21.416 73.0696L37.1997 16.1552L113.086 37.2002ZM83.5917 69.8819C79.7974 68.8296 77.9693 65.5986 79.0216 61.8043C80.0738 58.01 83.3049 56.182 87.0992 57.2342C90.8935 58.2865 92.7215 61.5175 91.6692 65.3118C90.617 69.1061 87.386 70.9341 83.5917 69.8819ZM40.3875 78.3308C41.4397 74.5365 44.6707 72.7085 48.465 73.7608C52.2593 74.813 54.0874 78.044 53.0351 81.8383C51.9829 85.6326 48.7518 87.4607 44.9575 86.4084C41.1632 85.3562 39.3352 82.1251 40.3875 78.3308ZM50.91 40.3879C51.9622 36.5936 55.1932 34.7656 58.9875 35.8178C62.7818 36.8701 64.6099 40.1011 63.5576 43.8954C62.5054 47.6897 59.2743 49.5177 55.48 48.4655C51.6857 47.4132 49.8577 44.1822 50.91 40.3879Z" fill="#9E9E9E" fill-opacity="0.2"/>
</g>
<defs>
<clipPath id="clip0_303_38">
<rect width="105" height="105" fill="white" transform="translate(0 101.181) rotate(-74.5)"/>
</clipPath>
</defs>
</svg>
