<svg width="26" height="26" viewBox="0 0 26 26" fill="none" xmlns="http://www.w3.org/2000/svg">
<g clip-path="url(#clip0_329_68)">
<path fill-rule="evenodd" clip-rule="evenodd" d="M7.63055 0.159548C5.5143 0.255033 3.68006 0.772429 2.19894 2.24729C0.712653 3.7299 0.201684 5.57142 0.105961 7.66565C0.0464573 8.97278 -0.301488 18.8478 0.707481 21.4375C1.38789 23.1846 2.72797 24.528 4.49108 25.2106C5.31378 25.5306 6.25292 25.7472 7.63055 25.8104C19.1496 26.3317 23.4196 26.0479 25.2202 21.4375C25.5397 20.6169 25.7596 19.6785 25.8204 18.3043C26.3469 6.75572 25.7351 4.25249 23.7275 2.24729C22.1351 0.658874 20.2621 -0.422397 7.63055 0.159548ZM7.7366 23.4878C6.47539 23.431 5.79111 23.2209 5.33449 23.0441C4.18581 22.5977 3.32302 21.7384 2.87933 20.5965C2.11096 18.6287 2.3658 9.28268 2.43436 7.77039C2.50163 6.28906 2.80172 4.93524 3.84691 3.89007C5.14046 2.59971 6.81171 1.96732 18.1911 2.48089C19.6761 2.54798 21.033 2.84747 22.0808 3.89007C23.3743 5.18041 24.0159 6.86452 23.4933 18.2002C23.4364 19.4583 23.2256 20.141 23.0484 20.5965C21.8777 23.5965 19.1845 24.013 7.7366 23.4878ZM18.3166 6.09651C18.3166 6.95073 19.0112 7.64534 19.8688 7.64534C20.7265 7.64534 21.4224 6.95073 21.4224 6.09651C21.4224 5.24231 20.7265 4.54832 19.8688 4.54832C19.0112 4.54832 18.3166 5.24231 18.3166 6.09651ZM6.32147 12.9844C6.32147 16.6438 9.29535 19.6107 12.9639 19.6107C16.6324 19.6107 19.6062 16.6438 19.6062 12.9844C19.6062 9.32493 16.6324 6.35994 12.9639 6.35994C9.29535 6.35994 6.32147 9.32493 6.32147 12.9844ZM8.65245 12.9844C8.65245 10.6101 10.5824 8.68382 12.9639 8.68382C15.3453 8.68382 17.2753 10.6101 17.2753 12.9844C17.2753 15.3599 15.3453 17.2868 12.9639 17.2868C10.5824 17.2868 8.65245 15.3599 8.65245 12.9844Z" fill="#F9E005"/>
</g>
<defs>
<clipPath id="clip0_329_68">
<rect width="26" height="26" fill="white"/>
</clipPath>
</defs>
</svg>
