<svg width="26" height="26" viewBox="0 0 26 26" fill="none" xmlns="http://www.w3.org/2000/svg">
<path d="M23.9194 0.00233173H2.2262C1.94659 -0.0107646 1.66713 0.0314007 1.40384 0.126438C1.14055 0.221476 0.898588 0.367501 0.691796 0.556146C0.485019 0.744807 0.317469 0.9724 0.198766 1.22588C0.0800622 1.47937 0.0125122 1.75378 0 2.0334V23.774C0.0163796 24.3591 0.256191 24.9159 0.670183 25.3297C1.08417 25.7438 1.64095 25.9836 2.2262 26H23.9194C24.4883 25.9747 25.0247 25.7273 25.4136 25.3112C25.8025 24.8951 26.0127 24.3433 25.9994 23.774V2.0334C26.0041 1.76123 25.9531 1.491 25.8496 1.23925C25.7461 0.987512 25.5922 0.759561 25.3974 0.569372C25.2027 0.3792 24.9711 0.230819 24.717 0.133311C24.4628 0.0358041 24.1915 -0.008766 23.9194 0.00233173ZM8.12481 21.6779H4.33865V10.0927H8.12481V21.6779ZM6.3211 8.33782C6.0569 8.34703 5.79364 8.3015 5.54788 8.20411C5.30211 8.10672 5.07913 7.95955 4.89297 7.77187C4.7068 7.58418 4.56145 7.36003 4.46606 7.11349C4.37066 6.86695 4.32729 6.60335 4.33865 6.33925C4.32697 6.07229 4.37121 5.80585 4.46857 5.557C4.56592 5.30814 4.71421 5.08238 4.90393 4.89421C5.09366 4.70602 5.32061 4.55957 5.57026 4.46425C5.81992 4.36892 6.08674 4.32684 6.3536 4.34068C6.61781 4.33149 6.88107 4.377 7.12683 4.47439C7.3726 4.57179 7.59558 4.71895 7.78173 4.90664C7.96791 5.09432 8.11326 5.31847 8.20864 5.56501C8.30405 5.81155 8.34742 6.07515 8.33606 6.33925C8.34774 6.60621 8.30349 6.87266 8.20614 7.1215C8.10879 7.37037 7.9605 7.59612 7.77078 7.7843C7.58105 7.97249 7.35409 8.11893 7.10445 8.21425C6.85479 8.30958 6.58797 8.35166 6.3211 8.33782ZM21.677 21.6779H17.8746V15.341C17.8746 13.8299 17.3384 12.79 15.9896 12.79C15.5707 12.7935 15.163 12.9266 14.8227 13.171C14.4823 13.4154 14.2259 13.759 14.0884 14.1548C13.9828 14.4515 13.9386 14.7666 13.9584 15.081V21.6779H10.221V10.0927H13.9584V11.7176C14.2907 11.1071 14.7852 10.6005 15.3874 10.2534C15.9896 9.9065 16.676 9.73277 17.3708 9.75144C19.8245 9.75144 21.677 11.3763 21.677 14.8373V21.6779Z" fill="#F9E005"/>
</svg>
