<svg width="113" height="113" viewBox="0 0 113 113" fill="none" xmlns="http://www.w3.org/2000/svg">
<g clip-path="url(#clip0_303_31)">
<path fill-rule="evenodd" clip-rule="evenodd" d="M30.9506 38.1758C33.2307 35.8742 33.2307 32.1459 30.9506 29.8443L30.874 29.7659C28.5939 27.4642 24.8998 27.4642 22.6197 29.7659L1.71007 50.8677C-0.570024 53.1693 -0.570024 56.9049 1.71007 59.2065L22.6197 80.3069C24.8998 82.6085 28.5939 82.6085 30.874 80.3069L30.9506 80.2299C33.2307 77.9283 33.2307 74.2 30.9506 71.8984L18.3777 59.2065C16.0976 56.9049 16.0976 53.1693 18.3777 50.8677L30.9506 38.1758ZM111.29 50.8677L90.3803 29.7659C88.1061 27.4642 84.4061 27.4642 82.126 29.7659L82.0494 29.8443C79.7693 32.1459 79.7693 35.8742 82.0494 38.1758L94.6282 50.8677C96.9083 53.1693 96.9083 56.9049 94.6282 59.2065L82.0494 71.8984C79.7693 74.2 79.7693 77.9283 82.0494 80.2299L82.126 80.3069C84.4061 82.6085 88.1061 82.6085 90.3803 80.3069L111.29 59.2065C113.57 56.9049 113.57 53.1693 111.29 50.8677ZM76.182 26.2172L46.0741 90.6306C45.0988 92.6556 43.3875 95.1579 41.1798 95.1579H41.0629C36.7702 95.1579 33.9726 89.3282 35.8708 85.3976L65.8034 21.5941C66.7787 19.575 70.394 17.9917 70.394 17.9917V17.8421C76.2345 17.8421 78.0743 22.2866 76.182 26.2172Z" fill="#9E9E9E" fill-opacity="0.2"/>
</g>
<defs>
<clipPath id="clip0_303_31">
<rect width="113" height="113" fill="white"/>
</clipPath>
</defs>
</svg>
