<svg width="27" height="27" viewBox="0 0 27 27" fill="none" xmlns="http://www.w3.org/2000/svg">
<path fill-rule="evenodd" clip-rule="evenodd" d="M3.4393 13.125C3.4393 7.31285 8.04139 2.60119 13.7183 2.60119C19.3953 2.60119 23.9974 7.31285 23.9974 13.125C23.9974 18.9371 19.3953 23.6488 13.7183 23.6488C11.6961 23.6488 9.81383 23.0522 8.22567 22.022C7.9301 21.8304 7.56793 21.7791 7.23266 21.8815L3.7509 22.9454L5.06183 19.8049C5.21678 19.4337 5.18525 19.0085 4.97735 18.6656C4.00245 17.0572 3.4393 15.1603 3.4393 13.125ZM13.7183 0.125C6.70563 0.125 1.02069 5.94529 1.02069 13.125C1.02069 15.4007 1.59286 17.5429 2.59838 19.4054L0.51333 24.4003C0.329006 24.8419 0.410709 25.3527 0.722962 25.7111C1.03522 26.0695 1.52171 26.2106 1.97117 26.0732L7.41233 24.4108C9.27107 25.5016 11.4251 26.1249 13.7183 26.1249C20.7311 26.1249 26.416 20.3047 26.416 13.125C26.416 5.94529 20.7311 0.125 13.7183 0.125ZM16.4907 15.827L14.9014 16.9731C14.1571 16.539 13.3341 15.9331 12.5087 15.088C11.6506 14.2094 11.0144 13.3024 10.5453 12.4704L11.5553 11.5927C11.9887 11.2161 12.1073 10.5811 11.8403 10.0672L10.5534 7.59104C10.3801 7.25761 10.0677 7.0234 9.70485 6.95499C9.34203 6.88658 8.96858 6.99146 8.69063 7.23981L8.30908 7.58073C7.39155 8.40058 6.8489 9.74783 7.29865 11.112C7.76492 12.5261 8.76 14.7518 10.7985 16.8389C12.9917 19.0843 15.2194 19.9685 16.5222 20.312C17.5719 20.5886 18.5652 20.2178 19.2652 19.6339L19.9805 19.0371C20.2864 18.7819 20.4515 18.3898 20.4227 17.9868C20.3938 17.5838 20.1747 17.2206 19.8356 17.0137L17.806 15.7756C17.3961 15.5256 16.8809 15.5457 16.4907 15.827Z" fill="#F9E005"/>
</svg>
